/* XPM */
static char * Untitled_xpm[] = {
"32 92 83 1",
" 	c None",
".	c #00FFFF",
"+	c #7F0303",
"@	c #B30303",
"#	c #E30303",
"$	c #730303",
"%	c #9B0303",
"&	c #A70303",
"*	c #8B0303",
"=	c #BF0303",
"-	c #CB0303",
";	c #670303",
">	c #EF0303",
",	c #D70303",
"'	c #AF4303",
")	c #430303",
"!	c #872303",
"~	c #7F1B1B",
"{	c #6B0F0F",
"]	c #932F03",
"^	c #D75F0B",
"/	c #9F3703",
"(	c #5F0707",
"_	c #5B0303",
":	c #4F0303",
"<	c #C34F03",
"[	c #FF7F1B",
"}	c #FFA35B",
"|	c #5B0707",
"1	c #B74703",
"2	c #FF8F3B",
"3	c #DF670F",
"4	c #D7BB43",
"5	c #C39B2F",
"6	c #9B5B13",
"7	c #AF7B1F",
"8	c #874307",
"9	c #9B633B",
"0	c #5B5B5B",
"a	c #972F2F",
"b	c #232323",
"c	c #675333",
"d	c #5F4323",
"e	c #575757",
"f	c #875733",
"g	c #1B1B1B",
"h	c #4B4B4B",
"i	c #432F1B",
"j	c #4B371B",
"k	c #434343",
"l	c #CB5707",
"m	c #670B0B",
"n	c #232B0F",
"o	c #777777",
"p	c #030303",
"q	c #3B3B3B",
"r	c #272727",
"s	c #43331B",
"t	c #533F1F",
"u	c #332B13",
"v	c #2F2F2F",
"w	c #3F2F17",
"x	c #2B230F",
"y	c #373737",
"z	c #474747",
"A	c #4F3B23",
"B	c #775F3F",
"C	c #574333",
"D	c #533F2F",
"E	c #8F7753",
"F	c #5F4B37",
"G	c #6B4727",
"H	c #4F4F4F",
"I	c #774F2B",
"J	c #6B6B6B",
"K	c #7F532F",
"L	c #A36B3F",
"M	c #636363",
"N	c #1F170B",
"O	c #8F5F37",
"P	c #B37347",
"Q	c #D78B5B",
"R	c #170F07",
"................................",
"................................",
"................................",
"................................",
"................................",
"................................",
"................................",
"................................",
"................+...............",
"................................",
"...............+................",
"................................",
"................+...............",
"................................",
"................+...............",
"................................",
"...............++...............",
"................................",
"...............+.+..............",
"................................",
"...............++...............",
"...............@.+..............",
"...............@@+..............",
"...............+@+..............",
"..............+++@..............",
"..............++@+..............",
"...............@#+..............",
"..............$%@@..............",
"...............&&%..............",
".............+.%@+..............",
"..............+@#+..............",
".............%%*@+..............",
"............=%+@@+..............",
"............==+@@*..............",
".............-@@@%;.............",
".............+==-%$.............",
"............*=>,=%+.............",
"............+*@#@=%;............",
".............++'@@&)............",
".............*''!~{.............",
"............*]'^/!(_:...........",
"............*]<[^'((:)..........",
"..........-,*]^}[^!$::_.........",
"..........-|1[2223!$::_.........",
"..........,|^[4553!$($..........",
".........-,|654557$$(+..........",
".........@-|7447778$$$$.........",
".........-~~7447776{$*$.........",
".........-~1749706aa$&$.........",
"........b=~'6cd6efa~$+b.........",
"........g.~~dh488hd~$*g.........",
"........gbijk67l8mkjibg.........",
".........gbnj88og$jnbg..........",
"..........pbqr8h$rqbp...........",
"...........pbqddsqbp............",
"............pktuvkp.............",
"............pqwvwqp.............",
"............gquxrqg.............",
"............gvxxxvg.............",
"............gyyyyyg.............",
".............gyyyg..............",
".............qezqb..............",
".............AcBCA..............",
".............DBEFD..............",
"..............ppp...............",
"..............rbg...............",
"..............ywg...............",
"..............qtg...............",
"..............zdg...............",
"..............0Gr...............",
"..............HIu...............",
"..............0Ir...............",
"..............JIw...............",
"..............JIr...............",
"..............0Kw...............",
"..............Hfw...............",
"..............H9j...............",
"..............zLj...............",
"..............zMj...............",
"..............eoe...............",
".............NNNNN..............",
"............Ndf9fdN.............",
"...........diNiiiNid............",
"..........dONdf9fdNOd...........",
".........NP9NLQQQLN9PN..........",
".........NRiNRiLiRNiRN..........",
"..........pRiOLNLOiRp...........",
".............NiIiN..............",
"................................",
"................................",
"................................",
"................................"};
